HIERARCHY
ROOT Hips
{
	OFFSET 0.00000 0.00000 0.00000
	CHANNELS 6 Xposition Yposition Zposition Zrotation Yrotation Xrotation 
	JOINT LHipJoint
	{
		OFFSET 0 0 0
		CHANNELS 3 Zrotation Yrotation Xrotation
		JOINT LeftUpLeg
		{
			OFFSET 1.86795 -1.59681 0.65681
			CHANNELS 3 Zrotation Yrotation Xrotation
			JOINT LeftLeg
			{
				OFFSET 2.30491 -6.33268 0.00000
				CHANNELS 3 Zrotation Yrotation Xrotation
				JOINT LeftFoot
				{
					OFFSET 2.46780 -6.78022 0.00000
					CHANNELS 3 Zrotation Yrotation Xrotation
					JOINT LeftToeBase
					{
						OFFSET 0.07897 -0.21698 1.59652
						CHANNELS 3 Zrotation Yrotation Xrotation
						End Site
						{
							OFFSET 0.00000 -0.00000 0.82310
						}
					}
				}
			}
		}
	}
	JOINT RHipJoint
	{
		OFFSET 0 0 0
		CHANNELS 3 Zrotation Yrotation Xrotation
		JOINT RightUpLeg
		{
			OFFSET -1.93650 -1.59681 0.65681
			CHANNELS 3 Zrotation Yrotation Xrotation
			JOINT RightLeg
			{
				OFFSET -2.29410 -6.30299 0.00000
				CHANNELS 3 Zrotation Yrotation Xrotation
				JOINT RightFoot
				{
					OFFSET -2.48738 -6.83403 0.00000
					CHANNELS 3 Zrotation Yrotation Xrotation
					JOINT RightToeBase
					{
						OFFSET -0.08699 -0.23899 1.89395
						CHANNELS 3 Zrotation Yrotation Xrotation
						End Site
						{
							OFFSET -0.00000 -0.00000 0.96904
						}
					}
				}
			}
		}
	}
	JOINT LowerBack
	{
		OFFSET 0 0 0
		CHANNELS 3 Zrotation Yrotation Xrotation
		JOINT Spine
		{
			OFFSET 0.03629 1.99740 -0.07548
			CHANNELS 3 Zrotation Yrotation Xrotation
			JOINT Spine1
			{
				OFFSET 0.03970 1.94298 0.17218
				CHANNELS 3 Zrotation Yrotation Xrotation
				JOINT Neck
				{
					OFFSET 0 0 0
					CHANNELS 3 Zrotation Yrotation Xrotation
					JOINT Neck1
					{
						OFFSET -0.05054 1.79469 0.04241
						CHANNELS 3 Zrotation Yrotation Xrotation
						JOINT Head
						{
							OFFSET 0.05195 1.78475 -0.22133
							CHANNELS 3 Zrotation Yrotation Xrotation
							End Site
							{
								OFFSET 0.02420 1.80711 -0.07950
							}
						}
					}
				}
				JOINT LeftShoulder
				{
					OFFSET 0 0 0
					CHANNELS 3 Zrotation Yrotation Xrotation
					JOINT LeftArm
					{
						OFFSET 2.92134 1.19850 0.36056
						CHANNELS 3 Zrotation Yrotation Xrotation
						JOINT LeftForeArm
						{
							OFFSET 4.84137 -0.00000 0.00000
							CHANNELS 3 Zrotation Yrotation Xrotation
							JOINT LeftHand
							{
								OFFSET 3.24520 -0.00000 -0.00000
								CHANNELS 3 Zrotation Yrotation Xrotation
								JOINT LeftFingerBase
								{
									OFFSET 0 0 0
									CHANNELS 3 Zrotation Yrotation Xrotation
									JOINT LeftHandIndex1
									{
										OFFSET 0.52122 -0.00000 0.00000
										CHANNELS 3 Zrotation Yrotation Xrotation
										End Site
										{
											OFFSET 0.42022 -0.00000 0.00000
										}
									}
								}
								JOINT LThumb
								{
									OFFSET 0 0 0
									CHANNELS 3 Zrotation Yrotation Xrotation
									End Site
									{
										OFFSET 0.42664 -0.00000 0.42664
									}
								}
							}
						}
					}
				}
				JOINT RightShoulder
				{
					OFFSET 0 0 0
					CHANNELS 3 Zrotation Yrotation Xrotation
					JOINT RightArm
					{
						OFFSET -2.84327 1.20795 0.50191
						CHANNELS 3 Zrotation Yrotation Xrotation
						JOINT RightForeArm
						{
							OFFSET -4.72284 -0.00000 0.00000
							CHANNELS 3 Zrotation Yrotation Xrotation
							JOINT RightHand
							{
								OFFSET -3.23459 -0.00000 0.00000
								CHANNELS 3 Zrotation Yrotation Xrotation
								JOINT RightFingerBase
								{
									OFFSET 0 0 0
									CHANNELS 3 Zrotation Yrotation Xrotation
									JOINT RightHandIndex1
									{
										OFFSET -0.30742 -0.00000 0.00000
										CHANNELS 3 Zrotation Yrotation Xrotation
										End Site
										{
											OFFSET -0.24785 -0.00000 0.00000
										}
									}
								}
								JOINT RThumb
								{
									OFFSET 0 0 0
									CHANNELS 3 Zrotation Yrotation Xrotation
									End Site
									{
										OFFSET -0.25163 -0.00000 0.25163
									}
								}
							}
						}
					}
				}
			}
		}
	}
}
MOTION
Frames: 8
Frame Time: 0.0444444
0.00 0.00 0.00 -3.7149 -0.6453 -349.7000 0.0000 0.0000 0.0000 -12.6808 -1.3631 -48.0634 6.8391 15.1949 48.2631 0.7678 0.0152 -16.5689 0.0106 -0.6637 -1.8239 0.0000 0.0000 0.0000 1.3785 17.6323 -31.7929 -2.4551 -9.7558 28.1895 1.1947 -21.9018 -20.1860 -0.5923 -4.9273 13.7013 0.4706 0.4719 16.2281 -1.6529 0.6583 10.1085 -2.0946 0.3975 1.6836 -2.0970 2.3739 -10.7752 2.7144 3.4641 -5.3700 1.3014 1.8135 0.0318 0.0000 0.0000 0.0000 0.1431 -3.8671 41.0652 36.6596 -45.9615 -15.9949 -0.0000 0.0000 -21.0536 -23.4741 44.8750 -17.0355 -7.1250 0.0000 -0.0000 -72.1283 60.7232 -37.9861 0.0000 0.0000 0.0000 0.8760 -6.0135 50.3610 -26.4518 37.6514 -9.1622 0.0000 -0.0000 -60.7750 9.1593 13.6445 2.1782 7.1250 -0.0000 -0.0000 24.4466 -16.7727 18.0930
0.00 0.00 0.00 -2.5330 2.6651 -351.3780 0.0000 0.0000 0.0000 -11.1964 -0.6767 -48.2142 7.8681 16.0214 52.0862 0.9714 -2.6140 -17.9314 0.4391 -4.2519 -11.7864 0.0000 0.0000 0.0000 2.4609 14.7079 -36.0085 -4.5671 -12.8790 38.9172 0.8726 -16.7859 -10.7334 -0.0000 0.0373 -0.1026 -0.1529 0.2974 18.0966 -1.7527 0.3864 11.8762 -1.8250 0.2613 2.6299 -1.7622 2.0839 -11.0136 2.7471 3.0494 -5.3353 1.2465 1.6046 0.0965 -0.0000 -0.0000 0.0000 -0.4221 -8.0917 49.6246 74.9235 -59.1235 -46.9818 -0.0000 0.0000 -41.0806 -31.3815 36.4333 -19.9128 -7.1250 0.0000 -0.0000 -66.7814 54.5326 -23.1480 -0.0000 -0.0000 0.0000 -0.7132 0.2313 59.0544 -61.0416 56.5812 -35.2091 0.0000 -0.0000 -77.4076 9.5926 14.0804 2.3544 7.1250 -0.0000 -0.0000 24.6474 -16.3627 18.5231
0.00 0.00 0.00 -2.0371 3.9526 -351.3500 0.0000 0.0000 0.0000 -10.7054 -0.8561 -48.3468 7.9566 16.0872 52.4061 0.9589 -3.5179 -17.6593 0.4761 -4.4253 -12.2764 0.0000 0.0000 0.0000 2.8622 12.9029 -37.4007 -5.1405 -13.5403 41.4264 1.0189 -17.5621 -7.7742 -0.6653 5.2163 -14.5266 -0.2069 0.1463 18.1772 -1.6202 0.2028 12.2936 -1.6273 0.1702 3.0413 -1.9389 1.8895 -10.7375 3.1908 2.8099 -5.2017 1.4079 1.4902 0.0930 -0.0000 0.0000 0.0000 -0.8077 -10.0601 52.0845 96.9709 -59.8156 -66.0332 -0.0000 0.0000 -49.6449 -35.0092 33.9007 -21.3395 -7.1250 0.0000 -0.0000 -66.3953 52.3722 -18.6614 -0.0000 0.0000 0.0000 -0.5992 2.0532 59.1311 -86.1003 59.9425 -56.6234 0.0000 -0.0000 -85.1822 8.6030 15.0189 2.2451 7.1250 -0.0000 -0.0000 23.9058 -15.5131 18.3353
0.00 0.00 0.00 -2.1877 5.0054 -351.3200 0.0000 0.0000 0.0000 -9.7096 -0.9197 -48.5625 7.9676 16.0954 52.4459 0.9621 -4.1963 -17.6056 0.6056 -4.9812 -13.8549 0.0000 0.0000 0.0000 3.9083 11.3321 -38.7825 -5.7435 -14.1751 43.9433 0.8917 -16.7583 -9.7762 -0.6683 5.2279 -14.5597 0.4049 -0.0056 18.6127 -1.3318 0.1003 12.5214 -1.6534 0.1496 3.0692 -2.1630 1.7820 -10.7796 3.5211 2.6920 -5.0081 1.5522 1.4397 0.1592 0.0000 0.0000 0.0000 -1.2067 -11.0146 53.5338 115.7926 -57.3307 -82.1369 -0.0000 0.0000 -56.1908 -37.5765 32.6861 -22.5644 -7.1250 0.0000 -0.0000 -66.6924 51.1860 -16.3138 0.0000 0.0000 0.0000 -0.7885 3.0142 59.2286 -108.3352 58.6908 -75.8089 0.0000 -0.0000 -92.0095 12.2191 15.6211 3.3373 7.1250 -0.0000 -0.0000 25.9899 -14.8777 20.7389
0.00 0.00 0.00 -1.3945 5.2272 -350.9860 0.0000 0.0000 0.0000 -9.8264 -0.9195 -48.4879 7.8991 16.0445 52.1984 0.9074 -4.6294 -17.0424 0.5527 -4.7626 -13.2327 0.0000 0.0000 0.0000 3.6702 10.2551 -40.2665 -6.2215 -14.6396 45.8642 0.6969 -15.5601 -11.5896 -0.7375 5.4863 -15.3009 0.1078 0.1200 18.7565 -1.2957 0.2260 12.6223 -1.4678 0.1963 3.1102 -2.0776 1.7245 -9.9418 3.3559 2.6058 -5.4813 1.4635 1.3843 -0.1227 -0.0000 0.0000 0.0000 -2.1363 -11.3483 55.3045 131.4936 -52.3751 -95.0137 -0.0000 0.0000 -59.3566 -41.3483 30.3505 -23.9729 -7.1250 0.0000 -0.0000 -66.2482 49.1094 -11.3458 -0.0000 0.0000 0.0000 -1.4000 4.1684 59.3212 -127.9374 53.7943 -92.1699 0.0000 -0.0000 -98.6113 12.9549 16.7400 3.7908 7.1250 -0.0000 -0.0000 26.2478 -13.8254 21.6730
0.00 0.00 0.00 -0.7967 5.2491 -350.2940 0.0000 0.0000 0.0000 -9.0107 -0.7669 -48.2308 7.6570 15.8611 51.3177 0.9280 -4.3134 -17.2685 0.9920 -6.3388 -17.7707 0.0000 0.0000 0.0000 4.5098 8.8756 -42.6106 -6.8530 -15.2069 48.3163 0.5177 -14.1940 -12.1965 -0.9159 6.0980 -17.0689 0.2998 0.2046 19.3429 -0.9942 0.3640 12.8003 -1.2815 0.2667 3.0140 -2.3480 1.5521 -9.7850 3.5286 2.3989 -5.3457 1.5597 1.2851 -0.1038 -0.0000 -0.0000 0.0000 -2.9172 -10.7448 56.9821 148.3735 -42.2474 -107.5110 -0.0000 0.0000 -59.5332 -50.7393 23.2933 -25.8180 -7.1250 0.0000 -0.0000 -61.0149 42.0909 8.1514 -0.0000 -0.0000 0.0000 -1.8263 6.5899 59.2934 -148.5510 42.1035 -107.6302 0.0000 -0.0000 -98.7917 26.9149 21.5438 10.5597 7.1250 -0.0000 -0.0000 32.6562 -8.0925 34.0396
0.00 0.00 0.00 1.5020 7.6535 -347.9510 0.0000 0.0000 0.0000 -5.8771 -3.9156 -44.4295 5.7999 14.2316 44.1733 0.6198 -1.9031 -14.3423 1.7526 -8.3305 -23.7225 0.0000 0.0000 0.0000 7.2234 7.9268 -46.0120 -8.3079 -16.3411 53.6643 0.3928 -15.1126 -16.5858 -0.6704 5.2359 -14.5827 0.4350 -0.8170 19.9618 0.3395 -0.8987 13.0453 0.2681 -0.4015 2.9659 -3.0621 0.7421 -9.5891 5.6304 1.4507 -6.2334 2.3447 0.8239 -0.4002 0.0000 -0.0000 0.0000 -2.6266 -2.9170 61.2501 119.6773 -56.3953 -85.3903 -0.0000 0.0000 -53.9246 -42.6752 27.5158 -23.0713 -7.1250 0.0000 -0.0000 -63.7360 47.0262 -5.4323 0.0000 -0.0000 0.0000 1.6154 -1.1189 64.7218 -88.1227 59.9867 -58.3743 0.0000 -0.0000 -85.4501 6.9775 14.8013 1.7908 7.1250 -0.0000 -0.0000 22.9322 -15.7285 17.3227
0.00 0.00 0.00 2.0739 7.1575 -347.5600 0.0000 0.0000 0.0000 -5.5659 -4.1165 -43.5367 5.5005 13.9262 42.9426 0.5861 -1.1250 -14.1188 1.8245 -8.4905 -24.2142 0.0000 0.0000 0.0000 7.4815 7.9147 -46.9163 -8.5781 -16.5284 54.6191 0.3661 -15.0583 -16.8846 -0.7134 5.3980 -15.0472 0.1813 -0.9488 19.8008 0.4451 -1.1105 13.3803 0.5534 -0.5290 3.4288 -3.0072 0.8277 -9.0522 5.2464 1.5322 -6.0888 2.2044 0.8547 -0.4448 0.0000 -0.0000 0.0000 -2.7880 -1.2835 61.8053 136.4815 -50.0217 -98.9027 -0.0000 0.0000 -56.6072 -43.0258 26.6755 -22.7346 -7.1250 0.0000 -0.0000 -62.9712 46.3800 -3.6616 0.0000 -0.0000 0.0000 0.9227 -3.0067 64.9447 -110.8612 58.2900 -77.9626 0.0000 -0.0000 -90.3429 13.3638 13.5109 3.1768 7.1250 -0.0000 -0.0000 27.0133 -16.7656 20.5124
